<mxfile host="app.diagrams.net" agent="Mozilla/5.0 (Windows NT 10.0; Win64; x64) AppleWebKit/537.36 (KHTML, like Gecko) Chrome/134.0.0.0 Safari/537.36" version="28.0.4">
  <diagram name="Page-1" id="QJUT16B3KiUF1RbxoRVt">
    <mxGraphModel dx="1395" dy="763" grid="1" gridSize="10" guides="1" tooltips="1" connect="1" arrows="1" fold="1" page="1" pageScale="1" pageWidth="850" pageHeight="1100" background="#ffffff" math="0" shadow="0">
      <root>
        <mxCell id="0" />
        <mxCell id="1" parent="0" />
        <mxCell id="lnCDXDo6_fTExqSRnj25-1" value="" style="shape=mxgraph.networks2.icon;aspect=fixed;fillColor=#EDEDED;strokeColor=#000000;gradientColor=#5B6163;network2IconShadow=1;network2bgFillColor=none;network2Icon=mxgraph.networks2.pc;network2IconYOffset=-0.0593;network2IconW=0.9999;network2IconH=0.7096;" parent="1" vertex="1">
          <mxGeometry x="254.21000000000004" y="500" width="91.59" height="65" as="geometry" />
        </mxCell>
        <mxCell id="lnCDXDo6_fTExqSRnj25-3" value="Windows 10 Client&lt;br&gt;Wazuh Agent" style="text;html=1;align=center;verticalAlign=middle;resizable=0;points=[];autosize=1;strokeColor=none;fillColor=none;" parent="1" vertex="1">
          <mxGeometry x="240" y="580" width="120" height="40" as="geometry" />
        </mxCell>
        <mxCell id="lnCDXDo6_fTExqSRnj25-5" style="edgeStyle=orthogonalEdgeStyle;rounded=0;orthogonalLoop=1;jettySize=auto;html=1;exitX=0.5;exitY=0;exitDx=0;exitDy=0;exitPerimeter=0;" parent="1" source="lnCDXDo6_fTExqSRnj25-4" edge="1">
          <mxGeometry relative="1" as="geometry">
            <mxPoint x="305" y="280" as="targetPoint" />
          </mxGeometry>
        </mxCell>
        <mxCell id="Jgi-WyejiRVk62PYQwX9-2" style="edgeStyle=orthogonalEdgeStyle;rounded=0;orthogonalLoop=1;jettySize=auto;html=1;exitX=0.5;exitY=0;exitDx=0;exitDy=0;exitPerimeter=0;entryX=0.5;entryY=1;entryDx=0;entryDy=0;shape=link;" edge="1" parent="1" source="lnCDXDo6_fTExqSRnj25-4" target="lnCDXDo6_fTExqSRnj25-6">
          <mxGeometry relative="1" as="geometry">
            <mxPoint x="330" y="130" as="targetPoint" />
          </mxGeometry>
        </mxCell>
        <mxCell id="lnCDXDo6_fTExqSRnj25-4" value="" style="verticalLabelPosition=bottom;sketch=0;html=1;fillColor=#A153A0;strokeColor=#ffffff;verticalAlign=top;align=center;points=[[0,0.5,0],[0.125,0.25,0],[0.25,0,0],[0.5,0,0],[0.75,0,0],[0.875,0.25,0],[1,0.5,0],[0.875,0.75,0],[0.75,1,0],[0.5,1,0],[0.125,0.75,0]];pointerEvents=1;shape=mxgraph.cisco_safe.compositeIcon;bgIcon=mxgraph.cisco_safe.design.blank_device;resIcon=mxgraph.cisco_safe.design.router_2;" parent="1" vertex="1">
          <mxGeometry x="275.01" y="250" width="50" height="45" as="geometry" />
        </mxCell>
        <mxCell id="Jgi-WyejiRVk62PYQwX9-3" style="edgeStyle=orthogonalEdgeStyle;rounded=0;orthogonalLoop=1;jettySize=auto;html=1;entryX=1;entryY=0.5;entryDx=0;entryDy=0;shape=link;" edge="1" parent="1" source="lnCDXDo6_fTExqSRnj25-6" target="lnCDXDo6_fTExqSRnj25-8">
          <mxGeometry relative="1" as="geometry" />
        </mxCell>
        <mxCell id="Jgi-WyejiRVk62PYQwX9-10" value="2. Receive Events" style="edgeLabel;html=1;align=center;verticalAlign=middle;resizable=0;points=[];" vertex="1" connectable="0" parent="Jgi-WyejiRVk62PYQwX9-3">
          <mxGeometry x="0.2772" relative="1" as="geometry">
            <mxPoint as="offset" />
          </mxGeometry>
        </mxCell>
        <mxCell id="lnCDXDo6_fTExqSRnj25-6" value="&lt;div&gt;&lt;br&gt;&lt;/div&gt;" style="image;aspect=fixed;perimeter=ellipsePerimeter;html=1;align=center;shadow=0;dashed=0;spacingTop=3;image=img/lib/active_directory/internet_cloud.svg;" parent="1" vertex="1">
          <mxGeometry x="275" y="160" width="50" height="31.5" as="geometry" />
        </mxCell>
        <mxCell id="lnCDXDo6_fTExqSRnj25-8" value="&lt;div&gt;Wazuh Manager&lt;/div&gt;" style="image;aspect=fixed;perimeter=ellipsePerimeter;html=1;align=center;shadow=0;dashed=0;spacingTop=3;image=img/lib/active_directory/internet_cloud.svg;" parent="1" vertex="1">
          <mxGeometry x="40" y="160" width="50" height="31.5" as="geometry" />
        </mxCell>
        <mxCell id="lnCDXDo6_fTExqSRnj25-10" value="&lt;div&gt;Shuffle&lt;/div&gt;&lt;div&gt;&lt;br&gt;&lt;/div&gt;" style="image;aspect=fixed;perimeter=ellipsePerimeter;html=1;align=center;shadow=0;dashed=0;spacingTop=3;image=img/lib/active_directory/internet_cloud.svg;" parent="1" vertex="1">
          <mxGeometry x="275" y="20" width="55" height="34.65" as="geometry" />
        </mxCell>
        <mxCell id="lnCDXDo6_fTExqSRnj25-13" value="&lt;div&gt;TheHive&lt;/div&gt;" style="image;aspect=fixed;perimeter=ellipsePerimeter;html=1;align=center;shadow=0;dashed=0;spacingTop=3;image=img/lib/active_directory/internet_cloud.svg;" parent="1" vertex="1">
          <mxGeometry x="510" y="140" width="50" height="31.5" as="geometry" />
        </mxCell>
        <mxCell id="lnCDXDo6_fTExqSRnj25-14" value="" style="shape=mxgraph.networks2.icon;aspect=fixed;fillColor=#EDEDED;strokeColor=#000000;gradientColor=#5B6163;network2IconShadow=1;network2bgFillColor=none;network2Icon=mxgraph.networks2.pc;network2IconYOffset=-0.0593;network2IconW=0.9999;network2IconH=0.7096;" parent="1" vertex="1">
          <mxGeometry x="510" y="335.56" width="90" height="63.87" as="geometry" />
        </mxCell>
        <mxCell id="lnCDXDo6_fTExqSRnj25-15" value="SOC Analyst" style="text;html=1;align=center;verticalAlign=middle;resizable=0;points=[];autosize=1;strokeColor=none;fillColor=none;" parent="1" vertex="1">
          <mxGeometry x="510" y="410" width="90" height="30" as="geometry" />
        </mxCell>
        <mxCell id="lnCDXDo6_fTExqSRnj25-18" style="edgeStyle=orthogonalEdgeStyle;rounded=0;orthogonalLoop=1;jettySize=auto;html=1;entryX=0.5;entryY=1;entryDx=0;entryDy=0;entryPerimeter=0;startArrow=classic;startFill=1;shape=link;" parent="1" source="lnCDXDo6_fTExqSRnj25-7" target="lnCDXDo6_fTExqSRnj25-4" edge="1">
          <mxGeometry relative="1" as="geometry" />
        </mxCell>
        <mxCell id="Jgi-WyejiRVk62PYQwX9-11" value="" style="endArrow=classic;startArrow=classic;html=1;rounded=0;entryX=0.5;entryY=1;entryDx=0;entryDy=0;exitX=0.5;exitY=0;exitDx=0;exitDy=0;shape=link;fillColor=#60a917;strokeColor=#2D7600;" edge="1" parent="1" source="lnCDXDo6_fTExqSRnj25-6" target="lnCDXDo6_fTExqSRnj25-10">
          <mxGeometry width="50" height="50" relative="1" as="geometry">
            <mxPoint x="295.8" y="140" as="sourcePoint" />
            <mxPoint x="345.8" y="90" as="targetPoint" />
          </mxGeometry>
        </mxCell>
        <mxCell id="Jgi-WyejiRVk62PYQwX9-21" value="4. Enrich IOCS" style="edgeLabel;html=1;align=center;verticalAlign=middle;resizable=0;points=[];" vertex="1" connectable="0" parent="Jgi-WyejiRVk62PYQwX9-11">
          <mxGeometry x="-0.1152" y="1" relative="1" as="geometry">
            <mxPoint as="offset" />
          </mxGeometry>
        </mxCell>
        <mxCell id="Jgi-WyejiRVk62PYQwX9-12" value="" style="endArrow=classic;startArrow=classic;html=1;rounded=0;entryX=0;entryY=0.5;entryDx=0;entryDy=0;exitX=0.5;exitY=0;exitDx=0;exitDy=0;shape=link;fillColor=#0050ef;strokeColor=#001DBC;" edge="1" parent="1" source="lnCDXDo6_fTExqSRnj25-8" target="lnCDXDo6_fTExqSRnj25-10">
          <mxGeometry width="50" height="50" relative="1" as="geometry">
            <mxPoint x="70" y="140" as="sourcePoint" />
            <mxPoint x="120" y="90" as="targetPoint" />
          </mxGeometry>
        </mxCell>
        <mxCell id="Jgi-WyejiRVk62PYQwX9-13" value="3. Send alerts" style="edgeLabel;html=1;align=center;verticalAlign=middle;resizable=0;points=[];" vertex="1" connectable="0" parent="Jgi-WyejiRVk62PYQwX9-12">
          <mxGeometry x="-0.705" y="3" relative="1" as="geometry">
            <mxPoint x="60" y="-32" as="offset" />
          </mxGeometry>
        </mxCell>
        <mxCell id="Jgi-WyejiRVk62PYQwX9-14" value="" style="edgeStyle=orthogonalEdgeStyle;rounded=0;orthogonalLoop=1;jettySize=auto;html=1;entryX=0.5;entryY=1;entryDx=0;entryDy=0;entryPerimeter=0;startArrow=classic;startFill=1;shape=link;" edge="1" parent="1" source="lnCDXDo6_fTExqSRnj25-1" target="lnCDXDo6_fTExqSRnj25-7">
          <mxGeometry relative="1" as="geometry">
            <mxPoint x="300" y="380" as="sourcePoint" />
            <mxPoint x="300" y="306" as="targetPoint" />
          </mxGeometry>
        </mxCell>
        <mxCell id="Jgi-WyejiRVk62PYQwX9-15" value="1. Send Ever" style="edgeLabel;html=1;align=center;verticalAlign=middle;resizable=0;points=[];" vertex="1" connectable="0" parent="Jgi-WyejiRVk62PYQwX9-14">
          <mxGeometry x="-0.3283" relative="1" as="geometry">
            <mxPoint as="offset" />
          </mxGeometry>
        </mxCell>
        <mxCell id="lnCDXDo6_fTExqSRnj25-7" value="Router" style="text;html=1;align=center;verticalAlign=middle;resizable=0;points=[];autosize=1;strokeColor=none;fillColor=none;" parent="1" vertex="1">
          <mxGeometry x="270.01" y="305.56" width="60" height="30" as="geometry" />
        </mxCell>
        <mxCell id="Jgi-WyejiRVk62PYQwX9-23" value="" style="endArrow=classic;startArrow=classic;html=1;rounded=0;exitX=1;exitY=0.5;exitDx=0;exitDy=0;entryX=0.5;entryY=0;entryDx=0;entryDy=0;shape=link;fillColor=#1ba1e2;strokeColor=#006EAF;" edge="1" parent="1" source="lnCDXDo6_fTExqSRnj25-10" target="lnCDXDo6_fTExqSRnj25-13">
          <mxGeometry width="50" height="50" relative="1" as="geometry">
            <mxPoint x="375" y="62.329999999999984" as="sourcePoint" />
            <mxPoint x="450" y="140" as="targetPoint" />
          </mxGeometry>
        </mxCell>
        <mxCell id="Jgi-WyejiRVk62PYQwX9-24" value="5. Send alerts" style="edgeLabel;html=1;align=center;verticalAlign=middle;resizable=0;points=[];" vertex="1" connectable="0" parent="Jgi-WyejiRVk62PYQwX9-23">
          <mxGeometry x="0.1472" y="1" relative="1" as="geometry">
            <mxPoint as="offset" />
          </mxGeometry>
        </mxCell>
        <mxCell id="Jgi-WyejiRVk62PYQwX9-26" value="" style="endArrow=classic;startArrow=classic;html=1;rounded=0;entryX=1;entryY=1;entryDx=0;entryDy=0;exitX=1;exitY=0.25;exitDx=0;exitDy=0;fillColor=#fa6800;strokeColor=#C73500;shape=link;" edge="1" parent="1" source="lnCDXDo6_fTExqSRnj25-6" target="lnCDXDo6_fTExqSRnj25-10">
          <mxGeometry width="50" height="50" relative="1" as="geometry">
            <mxPoint x="320" y="420" as="sourcePoint" />
            <mxPoint x="370" y="160" as="targetPoint" />
            <Array as="points">
              <mxPoint x="400" y="150" />
            </Array>
          </mxGeometry>
        </mxCell>
        <mxCell id="Jgi-WyejiRVk62PYQwX9-27" value="6. Send Email" style="edgeLabel;html=1;align=center;verticalAlign=middle;resizable=0;points=[];" vertex="1" connectable="0" parent="Jgi-WyejiRVk62PYQwX9-26">
          <mxGeometry x="0.0835" y="3" relative="1" as="geometry">
            <mxPoint as="offset" />
          </mxGeometry>
        </mxCell>
        <mxCell id="Jgi-WyejiRVk62PYQwX9-28" value="" style="endArrow=classic;startArrow=classic;html=1;rounded=0;entryX=0.022;entryY=0.538;entryDx=0;entryDy=0;entryPerimeter=0;exitX=1;exitY=1;exitDx=0;exitDy=0;shape=link;fillColor=#fa6800;strokeColor=#C73500;" edge="1" parent="1" source="lnCDXDo6_fTExqSRnj25-6" target="lnCDXDo6_fTExqSRnj25-14">
          <mxGeometry width="50" height="50" relative="1" as="geometry">
            <mxPoint x="400" y="370" as="sourcePoint" />
            <mxPoint x="450" y="320" as="targetPoint" />
          </mxGeometry>
        </mxCell>
        <mxCell id="Jgi-WyejiRVk62PYQwX9-29" value="7. Send &amp;amp; Receive Email" style="edgeLabel;html=1;align=center;verticalAlign=middle;resizable=0;points=[];" vertex="1" connectable="0" parent="Jgi-WyejiRVk62PYQwX9-28">
          <mxGeometry x="0.1036" y="3" relative="1" as="geometry">
            <mxPoint as="offset" />
          </mxGeometry>
        </mxCell>
        <mxCell id="Jgi-WyejiRVk62PYQwX9-30" value="" style="endArrow=classic;startArrow=classic;html=1;rounded=0;entryX=0.015;entryY=0.978;entryDx=0;entryDy=0;entryPerimeter=0;exitX=0.75;exitY=1;exitDx=0;exitDy=0;fillColor=#e51400;strokeColor=#B20000;shape=link;" edge="1" parent="1" source="lnCDXDo6_fTExqSRnj25-6" target="lnCDXDo6_fTExqSRnj25-14">
          <mxGeometry width="50" height="50" relative="1" as="geometry">
            <mxPoint x="320" y="420" as="sourcePoint" />
            <mxPoint x="370" y="370" as="targetPoint" />
            <Array as="points">
              <mxPoint x="380" y="340" />
            </Array>
          </mxGeometry>
        </mxCell>
        <mxCell id="Jgi-WyejiRVk62PYQwX9-31" value="8. Send Response Action" style="edgeLabel;html=1;align=center;verticalAlign=middle;resizable=0;points=[];" vertex="1" connectable="0" parent="Jgi-WyejiRVk62PYQwX9-30">
          <mxGeometry x="0.2928" y="-1" relative="1" as="geometry">
            <mxPoint as="offset" />
          </mxGeometry>
        </mxCell>
        <mxCell id="Jgi-WyejiRVk62PYQwX9-32" value="" style="endArrow=classic;startArrow=classic;html=1;rounded=0;exitX=0;exitY=0.25;exitDx=0;exitDy=0;entryX=0;entryY=1;entryDx=0;entryDy=0;fillColor=#e51400;strokeColor=#B20000;shape=link;" edge="1" parent="1" source="lnCDXDo6_fTExqSRnj25-6" target="lnCDXDo6_fTExqSRnj25-10">
          <mxGeometry width="50" height="50" relative="1" as="geometry">
            <mxPoint x="210" y="130" as="sourcePoint" />
            <mxPoint x="260" y="80" as="targetPoint" />
            <Array as="points">
              <mxPoint x="200" y="150" />
            </Array>
          </mxGeometry>
        </mxCell>
        <mxCell id="Jgi-WyejiRVk62PYQwX9-33" value="" style="endArrow=classic;startArrow=classic;html=1;rounded=0;entryX=0;entryY=0;entryDx=0;entryDy=0;exitX=0;exitY=0.5;exitDx=0;exitDy=0;fillColor=#e51400;strokeColor=#B20000;shape=link;" edge="1" parent="1" source="lnCDXDo6_fTExqSRnj25-8" target="lnCDXDo6_fTExqSRnj25-10">
          <mxGeometry width="50" height="50" relative="1" as="geometry">
            <mxPoint x="80" y="70" as="sourcePoint" />
            <mxPoint x="130" y="20" as="targetPoint" />
            <Array as="points">
              <mxPoint x="40" y="110" />
              <mxPoint x="40" y="25" />
            </Array>
          </mxGeometry>
        </mxCell>
        <mxCell id="Jgi-WyejiRVk62PYQwX9-34" value="9. Send Response Action" style="edgeLabel;html=1;align=center;verticalAlign=middle;resizable=0;points=[];" vertex="1" connectable="0" parent="Jgi-WyejiRVk62PYQwX9-33">
          <mxGeometry x="0.0534" relative="1" as="geometry">
            <mxPoint x="-56" y="55" as="offset" />
          </mxGeometry>
        </mxCell>
        <mxCell id="Jgi-WyejiRVk62PYQwX9-36" value="" style="endArrow=classic;startArrow=classic;html=1;rounded=0;exitX=0.063;exitY=0.544;exitDx=0;exitDy=0;exitPerimeter=0;shape=link;fillColor=#e51400;strokeColor=#B20000;" edge="1" parent="1" source="lnCDXDo6_fTExqSRnj25-1" target="lnCDXDo6_fTExqSRnj25-8">
          <mxGeometry width="50" height="50" relative="1" as="geometry">
            <mxPoint x="70" y="550" as="sourcePoint" />
            <mxPoint x="90" y="245" as="targetPoint" />
            <Array as="points">
              <mxPoint x="70" y="535" />
            </Array>
          </mxGeometry>
        </mxCell>
        <mxCell id="Jgi-WyejiRVk62PYQwX9-37" value="8.&amp;nbsp;&lt;span style=&quot;background-color: light-dark(#ffffff, var(--ge-dark-color, #121212)); color: light-dark(rgb(0, 0, 0), rgb(255, 255, 255));&quot;&gt;Perform Responsive Action&lt;/span&gt;&lt;span style=&quot;color: light-dark(rgb(0, 0, 0), rgb(255, 255, 255)); background-color: light-dark(#ffffff, var(--ge-dark-color, #121212));&quot;&gt;&amp;nbsp;&lt;/span&gt;" style="edgeLabel;html=1;align=center;verticalAlign=middle;resizable=0;points=[];" vertex="1" connectable="0" parent="Jgi-WyejiRVk62PYQwX9-36">
          <mxGeometry x="-0.4965" y="-2" relative="1" as="geometry">
            <mxPoint x="-46" y="-143" as="offset" />
          </mxGeometry>
        </mxCell>
        <mxCell id="Jgi-WyejiRVk62PYQwX9-40" style="edgeStyle=orthogonalEdgeStyle;rounded=0;orthogonalLoop=1;jettySize=auto;html=1;" edge="1" parent="1" source="Jgi-WyejiRVk62PYQwX9-38" target="Jgi-WyejiRVk62PYQwX9-39">
          <mxGeometry relative="1" as="geometry" />
        </mxCell>
        <mxCell id="Jgi-WyejiRVk62PYQwX9-38" value="Windows 10 Send Events" style="text;html=1;align=center;verticalAlign=middle;resizable=0;points=[];autosize=1;strokeColor=none;fillColor=none;" vertex="1" parent="1">
          <mxGeometry x="-210" y="690" width="160" height="30" as="geometry" />
        </mxCell>
        <mxCell id="Jgi-WyejiRVk62PYQwX9-43" style="edgeStyle=orthogonalEdgeStyle;rounded=0;orthogonalLoop=1;jettySize=auto;html=1;entryX=-0.002;entryY=0.492;entryDx=0;entryDy=0;entryPerimeter=0;" edge="1" parent="1" source="Jgi-WyejiRVk62PYQwX9-39" target="Jgi-WyejiRVk62PYQwX9-41">
          <mxGeometry relative="1" as="geometry" />
        </mxCell>
        <mxCell id="Jgi-WyejiRVk62PYQwX9-39" value="Wazuh Manager&lt;br&gt;Trigger alerts &amp;amp; Perform response actions" style="text;html=1;align=center;verticalAlign=middle;resizable=0;points=[];autosize=1;strokeColor=none;fillColor=none;" vertex="1" parent="1">
          <mxGeometry y="685" width="250" height="40" as="geometry" />
        </mxCell>
        <mxCell id="Jgi-WyejiRVk62PYQwX9-45" value="" style="edgeStyle=orthogonalEdgeStyle;rounded=0;orthogonalLoop=1;jettySize=auto;html=1;" edge="1" parent="1" source="Jgi-WyejiRVk62PYQwX9-41" target="Jgi-WyejiRVk62PYQwX9-44">
          <mxGeometry relative="1" as="geometry" />
        </mxCell>
        <mxCell id="Jgi-WyejiRVk62PYQwX9-47" value="" style="edgeStyle=orthogonalEdgeStyle;rounded=0;orthogonalLoop=1;jettySize=auto;html=1;" edge="1" parent="1" source="Jgi-WyejiRVk62PYQwX9-41" target="Jgi-WyejiRVk62PYQwX9-46">
          <mxGeometry relative="1" as="geometry" />
        </mxCell>
        <mxCell id="Jgi-WyejiRVk62PYQwX9-49" value="" style="edgeStyle=orthogonalEdgeStyle;rounded=0;orthogonalLoop=1;jettySize=auto;html=1;" edge="1" parent="1" source="Jgi-WyejiRVk62PYQwX9-41" target="Jgi-WyejiRVk62PYQwX9-48">
          <mxGeometry relative="1" as="geometry" />
        </mxCell>
        <mxCell id="Jgi-WyejiRVk62PYQwX9-41" value="Shuffle&lt;div&gt;Receive Wazuh Alerts &amp;amp; Send responsive actions&lt;/div&gt;" style="text;html=1;align=center;verticalAlign=middle;resizable=0;points=[];autosize=1;strokeColor=none;fillColor=none;" vertex="1" parent="1">
          <mxGeometry x="300" y="685" width="290" height="40" as="geometry" />
        </mxCell>
        <mxCell id="Jgi-WyejiRVk62PYQwX9-44" value="OSINT&lt;br&gt;Enrich IOCS" style="text;html=1;align=center;verticalAlign=middle;resizable=0;points=[];autosize=1;strokeColor=none;fillColor=none;" vertex="1" parent="1">
          <mxGeometry x="400" y="600" width="90" height="40" as="geometry" />
        </mxCell>
        <mxCell id="Jgi-WyejiRVk62PYQwX9-46" value="TheHive&lt;div&gt;Create alert in case management&amp;nbsp;&lt;/div&gt;" style="text;html=1;align=center;verticalAlign=middle;resizable=0;points=[];autosize=1;strokeColor=none;fillColor=none;" vertex="1" parent="1">
          <mxGeometry x="345" y="760" width="200" height="40" as="geometry" />
        </mxCell>
        <mxCell id="Jgi-WyejiRVk62PYQwX9-48" value="Email&lt;br&gt;Send email &amp;amp; responsive actions" style="text;html=1;align=center;verticalAlign=middle;resizable=0;points=[];autosize=1;strokeColor=none;fillColor=none;" vertex="1" parent="1">
          <mxGeometry x="640" y="685" width="200" height="40" as="geometry" />
        </mxCell>
      </root>
    </mxGraphModel>
  </diagram>
</mxfile>
